<?xml version="1.0" encoding="UTF-8" standalone="no"?>
<!DOCTYPE svg PUBLIC "-//W3C//DTD SVG 1.1//EN" "http://www.w3.org/Graphics/SVG/1.1/DTD/svg11.dtd">
<svg width="100%" height="100%" viewBox="0 0 40 40" version="1.1" xmlns="http://www.w3.org/2000/svg" xmlns:xlink="http://www.w3.org/1999/xlink" xml:space="preserve" xmlns:serif="http://www.serif.com/" style="fill-rule:evenodd;clip-rule:evenodd;stroke-linejoin:round;stroke-miterlimit:2;">
    <g transform="matrix(0.346191,0,0,0.328706,-29.9697,-23.6316)">
        <path d="M148.229,179.546L148.229,175.78C148.229,173.442 146.338,171.55 144,171.55C141.662,171.55 139.771,173.442 139.771,175.78L139.771,179.546C116.863,177.518 98.577,159.19 96.611,136.264L100.256,136.264C102.593,136.264 104.484,134.373 104.484,132.035C104.484,129.697 102.593,127.806 100.256,127.806L96.63,127.806C98.714,105.003 116.951,86.81 139.771,84.788L139.771,88.291C139.771,90.628 141.662,92.52 144,92.52C146.338,92.52 148.229,90.628 148.229,88.291L148.229,84.788C171.05,86.81 189.286,105.003 191.369,127.806L187.745,127.806C185.407,127.806 183.516,129.697 183.516,132.035C183.516,134.373 185.407,136.264 187.745,136.264L191.39,136.264C189.424,159.19 171.138,177.518 148.229,179.546ZM144,76.132C113.05,76.132 87.964,101.216 87.964,132.167C87.964,163.117 113.05,188.203 144,188.203C174.95,188.203 200.036,163.117 200.036,132.167C200.036,101.216 174.95,76.132 144,76.132Z" style="fill:rgb(63,159,213);fill-rule:nonzero;"/>
        <path d="M169.193,104.868L144.143,131.117L144,131.11C143.687,131.11 143.381,131.142 143.084,131.2L122.119,115.358C120.731,114.317 118.741,114.582 117.684,115.986C116.627,117.374 116.899,119.372 118.304,120.429L139.263,136.265C139.465,138.705 141.508,140.626 144,140.626C146.627,140.626 148.758,138.494 148.758,135.868C148.758,135.742 148.749,135.619 148.739,135.496L173.785,109.246C174.992,107.973 174.95,105.974 173.679,104.76C172.415,103.546 170.407,103.604 169.193,104.868Z" style="fill:rgb(63,159,213);fill-rule:nonzero;"/>
    </g>
</svg>
