<?xml version="1.0" encoding="UTF-8"?>
<!DOCTYPE svg PUBLIC "-//W3C//DTD SVG 1.1//EN" "http://www.w3.org/Graphics/SVG/1.1/DTD/svg11.dtd">
<!-- Creator: CorelDRAW 2020 (64-Bit) -->
<svg xmlns="http://www.w3.org/2000/svg" xml:space="preserve" width="75.571mm" height="21.6976mm" version="1.1" style="shape-rendering:geometricPrecision; text-rendering:geometricPrecision; image-rendering:optimizeQuality; fill-rule:evenodd; clip-rule:evenodd"
viewBox="0 0 7556.04 2169.46"
 xmlns:xlink="http://www.w3.org/1999/xlink"
 xmlns:xodm="http://www.corel.com/coreldraw/odm/2003">
 <defs>
  <style type="text/css">
   <![CDATA[
    .fil2 {fill:#262C57}
    .fil1 {fill:#2F9DD9}
    .fil0 {fill:#262C57;fill-rule:nonzero}
   ]]>
  </style>
 </defs>
 <g id="Capa_x0020_1">
  <metadata id="CorelCorpID_0Corel-Layer"/>
  <g id="_2772648656816">
   <path class="fil0" d="M2795.64 1136.09l0 -1015.06 457.5 0c47.65,0 91.74,10.01 132.24,30.03 40.5,20.01 75.53,46.22 105.08,78.63 29.55,32.41 52.66,69.1 69.34,110.08 16.68,40.98 25.02,82.44 25.02,124.38 0,31.45 -3.81,61.71 -11.44,90.78 -7.62,29.08 -18.58,56.47 -32.88,82.21 -14.3,25.74 -31.7,48.84 -52.18,69.34 -20.5,20.49 -43.6,37.88 -69.34,52.18l233.04 377.43 -264.49 0 -204.44 -327.39 -152.97 0 0 327.39 -234.47 0zm234.47 -531.84l214.45 0c27.64,0 51.46,-13.1 71.48,-39.31 20.02,-26.21 30.03,-59.8 30.03,-100.79 0,-41.94 -11.44,-75.3 -34.32,-100.08 -22.88,-24.79 -47.65,-37.17 -74.34,-37.17l-207.3 0 0 277.35zm1386.77 531.84l-67.2 -70.05c-41.93,27.64 -86.25,48.6 -132.95,62.9 -46.7,14.3 -94.36,21.45 -142.97,21.45 -55.28,0 -104.61,-8.82 -147.97,-26.45 -43.36,-17.64 -79.82,-40.98 -109.36,-70.06 -29.55,-29.07 -52.18,-62.19 -67.91,-99.36 -15.73,-37.17 -23.6,-75.77 -23.6,-115.8 0,-30.5 4.29,-58.85 12.87,-85.07 8.58,-26.21 20.26,-50.27 35.03,-72.2 14.78,-21.92 31.7,-42.4 50.76,-61.47 19.06,-19.06 39.54,-36.69 61.47,-52.89 -17.16,-20.98 -31.93,-40.03 -44.32,-57.19 -12.39,-17.16 -22.4,-34.08 -30.02,-50.75 -7.63,-16.68 -13.11,-32.89 -16.45,-48.6 -3.33,-15.73 -5,-32.65 -5,-50.75 0,-39.08 7.15,-74.11 21.45,-105.09 14.29,-30.98 34.31,-57.42 60.04,-79.35 25.74,-21.92 56.23,-38.59 91.5,-50.03 35.27,-11.44 73.39,-17.16 114.37,-17.16 35.27,0 70.05,4.53 104.37,13.58 34.32,9.06 64.57,23.36 90.79,42.89 26.21,19.54 47.41,43.84 63.61,72.91 16.21,29.08 24.31,63.62 24.31,103.66 0,54.32 -14.3,102.22 -42.88,143.68 -28.6,41.45 -65.77,79.35 -111.51,113.65l158.69 168.71c12.39,-28.6 22.16,-59.81 29.31,-93.65 7.15,-33.84 10.73,-70.77 10.73,-110.79l185.85 0c-0.95,70.53 -9.53,134.14 -25.74,190.85 -16.2,56.71 -38.12,107.94 -65.76,153.69l218.74 228.75 -300.23 0zm-318.82 -164.41c43.84,0 86.73,-12.87 128.67,-38.6l-201.58 -214.45c-24.79,19.07 -44.32,38.12 -58.62,57.19 -14.3,19.06 -21.45,40.5 -21.45,64.33 0,15.25 3.34,30.74 10.01,46.46 6.67,15.73 16.45,29.79 29.31,42.17 12.87,12.39 28.84,22.64 47.89,30.74 19.07,8.1 40.98,12.16 65.77,12.16zm-101.51 -620.47c0,15.25 4.76,29.31 14.3,42.17 9.53,12.87 26.69,31.69 51.46,56.47 29.55,-19.07 51.47,-36.22 65.77,-51.47 14.29,-15.25 21.44,-33.36 21.44,-54.32 0,-20.97 -6.67,-37.65 -20.01,-50.04 -13.35,-12.39 -30.99,-18.59 -52.9,-18.59 -24.78,0 -44.32,7.15 -58.61,21.45 -14.3,14.3 -21.45,32.41 -21.45,54.33zm819.2 784.88l0 -1015.06 457.5 0c47.65,0 91.74,10.01 132.24,30.03 40.5,20.01 75.53,46.22 105.08,78.63 29.55,32.41 52.66,69.1 69.34,110.08 16.68,40.98 25.02,82.44 25.02,124.38 0,31.45 -3.81,61.71 -11.44,90.78 -7.62,29.08 -18.58,56.47 -32.88,82.21 -14.3,25.74 -31.7,48.84 -52.18,69.34 -20.5,20.49 -43.6,37.88 -69.34,52.18l233.04 377.43 -264.49 0 -204.44 -327.39 -152.97 0 0 327.39 -234.47 0zm234.47 -531.84l214.45 0c27.64,0 51.46,-13.1 71.48,-39.31 20.02,-26.21 30.03,-59.8 30.03,-100.79 0,-41.94 -11.44,-75.3 -34.32,-100.08 -22.88,-24.79 -47.65,-37.17 -74.34,-37.17l-207.3 0 0 277.35z"/>
   <path class="fil0" d="M2782.28 1804.38c0,-18.26 3.28,-36.45 9.85,-54.58 6.56,-18.12 16.13,-34.32 28.68,-48.58 12.56,-14.27 27.91,-25.83 46.02,-34.68 18.13,-8.85 38.74,-13.28 61.86,-13.28 27.12,0 50.66,6.14 70.64,18.41 19.98,12.28 34.82,28.26 44.52,47.95l-53.94 37.67c-3.14,-8 -7.14,-14.63 -11.99,-19.91 -4.85,-5.28 -10.13,-9.57 -15.84,-12.85 -5.71,-3.28 -11.63,-5.56 -17.77,-6.85 -6.14,-1.28 -11.92,-1.92 -17.34,-1.92 -12.56,0 -23.41,2.71 -32.54,8.13 -9.14,5.42 -16.7,12.42 -22.69,20.98 -6,8.56 -10.49,18.27 -13.49,29.11 -3,10.85 -4.5,21.84 -4.5,32.97 0,11.99 1.79,23.55 5.36,34.68 3.56,11.14 8.56,20.98 14.98,29.55 6.42,8.56 14.2,15.34 23.34,20.33 9.13,5 19.26,7.5 30.39,7.5 5.71,0 11.64,-0.79 17.77,-2.36 6.14,-1.57 12.06,-3.99 17.77,-7.28 5.71,-3.28 10.85,-7.56 15.42,-12.84 4.56,-5.28 8.27,-11.78 11.13,-19.48l57.79 33.82c-4.57,11.13 -11.2,21.13 -19.91,29.97 -8.71,8.85 -18.62,16.27 -29.76,22.27 -11.13,5.99 -22.9,10.56 -35.32,13.7 -12.42,3.14 -24.62,4.71 -36.6,4.71 -21.12,0 -40.45,-4.5 -58,-13.49 -17.56,-8.99 -32.69,-20.91 -45.38,-35.74 -12.7,-14.84 -22.62,-31.68 -29.76,-50.51 -7.13,-18.84 -10.7,-37.96 -10.7,-57.37zm400.27 158.83c-19.13,0 -36.17,-3.14 -51.16,-9.42 -14.98,-6.28 -27.61,-14.77 -37.88,-25.47 -10.27,-10.71 -18.05,-23.12 -23.33,-37.24 -5.28,-14.13 -7.92,-28.9 -7.92,-44.31 0,-15.41 2.64,-30.18 7.92,-44.3 5.28,-14.13 13.06,-26.55 23.33,-37.24 10.28,-10.71 22.91,-19.27 37.88,-25.69 14.99,-6.42 32.04,-9.64 51.16,-9.64 19.12,0 36.1,3.22 50.94,9.64 14.84,6.42 27.4,14.98 37.67,25.69 10.27,10.7 18.12,23.12 23.55,37.24 5.42,14.13 8.13,28.9 8.13,44.3 0,15.42 -2.64,30.19 -7.92,44.31 -5.28,14.13 -13.06,26.54 -23.33,37.24 -10.28,10.7 -22.91,19.19 -37.89,25.47 -14.98,6.28 -32.04,9.42 -51.15,9.42zm-50.09 -116.44c0,17.7 4.71,31.9 14.13,42.59 9.42,10.71 21.41,16.06 35.96,16.06 7.13,0 13.7,-1.43 19.69,-4.28 6,-2.86 11.21,-6.85 15.63,-11.99 4.43,-5.14 7.92,-11.35 10.49,-18.63 2.57,-7.27 3.86,-15.19 3.86,-23.76 0,-17.7 -4.71,-31.9 -14.13,-42.59 -9.42,-10.7 -21.27,-16.06 -35.54,-16.06 -7.14,0 -13.77,1.43 -19.91,4.29 -6.14,2.85 -11.42,6.85 -15.84,11.98 -4.43,5.14 -7.92,11.35 -10.49,18.63 -2.57,7.28 -3.86,15.2 -3.86,23.76zm345.92 -53.94c-16.56,0.29 -31.47,3 -44.73,8.14 -13.28,5.14 -23.05,12.84 -29.33,23.12l0 134.85 -68.5 0 0 -224.75 62.93 0 0 45.37c7.99,-15.13 18.05,-26.9 30.19,-35.32 12.13,-8.42 25.04,-12.92 38.73,-13.49 5.71,0 9.28,0.14 10.71,0.43l0 61.64zm171.67 0c-16.56,0.29 -31.47,3 -44.73,8.14 -13.28,5.14 -23.05,12.84 -29.33,23.12l0 134.85 -68.5 0 0 -224.75 62.93 0 0 45.37c7.99,-15.13 18.05,-26.9 30.19,-35.32 12.13,-8.42 25.04,-12.92 38.73,-13.49 5.71,0 9.28,0.14 10.71,0.43l0 61.64zm136.99 170.39c-18.84,0 -35.74,-3.07 -50.73,-9.2 -14.99,-6.14 -27.69,-14.49 -38.1,-25.05 -10.41,-10.56 -18.34,-22.77 -23.76,-36.6 -5.42,-13.84 -8.13,-28.33 -8.13,-43.45 0,-16.27 2.71,-31.61 8.13,-46.01 5.42,-14.42 13.27,-27.05 23.55,-37.89 10.28,-10.84 22.91,-19.41 37.88,-25.69 14.99,-6.28 32.04,-9.42 51.16,-9.42 19.12,0 36.1,3.14 50.94,9.42 14.84,6.28 27.4,14.78 37.67,25.48 10.27,10.7 18.05,23.05 23.33,37.03 5.28,13.98 7.92,28.68 7.92,44.09 0,3.99 -0.14,7.92 -0.43,11.77 -0.28,3.85 -0.71,7.21 -1.28,10.06l-166.11 0c1.14,15.13 6.64,26.62 16.49,34.47 9.84,7.85 21.05,11.77 33.61,11.77 9.99,0 19.62,-2.42 28.9,-7.28 9.28,-4.85 15.48,-11.41 18.62,-19.69l58.22 16.27c-8.85,17.7 -22.55,32.11 -41.09,43.23 -18.55,11.14 -40.81,16.7 -66.78,16.7zm47.51 -137.85c-1.42,-14.27 -6.56,-25.54 -15.41,-33.82 -8.85,-8.28 -19.84,-12.42 -32.97,-12.42 -13.42,0 -24.48,4.21 -33.18,12.63 -8.71,8.42 -13.77,19.63 -15.2,33.61l96.75 0zm196.93 137.85c-15.42,0 -29.62,-2.92 -42.59,-8.78 -12.99,-5.85 -24.2,-14.05 -33.61,-24.61 -9.42,-10.57 -16.77,-22.91 -22.06,-37.03 -5.28,-14.13 -7.92,-29.62 -7.92,-46.45 0,-16.27 2.43,-31.54 7.28,-45.8 4.86,-14.27 11.71,-26.62 20.55,-37.03 8.85,-10.41 19.34,-18.62 31.47,-24.61 12.14,-6 25.48,-9 40.03,-9 15.41,0 29.54,3.72 42.37,11.14 12.85,7.42 22.7,17.41 29.55,29.97l0 -124.58 68.49 0 0 235.46c0,6.85 1.29,11.63 3.86,14.34 2.57,2.72 7.13,4.36 13.7,4.93l0 57.79c-7.14,1.43 -13.35,2.35 -18.63,2.78 -5.28,0.43 -10.06,0.65 -14.34,0.65 -23.98,-0.58 -37.67,-10.14 -41.09,-28.69l-1.29 -11.99c-8.28,13.99 -19.12,24.41 -32.54,31.26 -13.41,6.85 -27.83,10.27 -43.23,10.27zm18.41 -57.79c9.42,0 18.41,-2.78 26.97,-8.35 8.57,-5.57 15.27,-13.2 20.13,-22.91l0 -47.08c-4.29,-11.42 -11.21,-20.77 -20.77,-28.05 -9.56,-7.28 -19.48,-10.92 -29.76,-10.92 -7.42,0 -14.2,1.65 -20.33,4.93 -6.14,3.28 -11.49,7.63 -16.06,13.06 -4.57,5.42 -8.06,11.7 -10.49,18.84 -2.43,7.13 -3.64,14.7 -3.64,22.69 0,16.84 5,30.68 14.99,41.52 9.99,10.85 22.97,16.27 38.95,16.27zm277.84 57.79c-19.13,0 -36.17,-3.14 -51.16,-9.42 -14.98,-6.28 -27.61,-14.77 -37.88,-25.47 -10.27,-10.71 -18.05,-23.12 -23.33,-37.24 -5.28,-14.13 -7.92,-28.9 -7.92,-44.31 0,-15.41 2.64,-30.18 7.92,-44.3 5.28,-14.13 13.06,-26.55 23.33,-37.24 10.28,-10.71 22.91,-19.27 37.88,-25.69 14.99,-6.42 32.04,-9.64 51.16,-9.64 19.12,0 36.1,3.22 50.94,9.64 14.84,6.42 27.4,14.98 37.67,25.69 10.27,10.7 18.12,23.12 23.55,37.24 5.42,14.13 8.13,28.9 8.13,44.3 0,15.42 -2.64,30.19 -7.92,44.31 -5.28,14.13 -13.06,26.54 -23.33,37.24 -10.28,10.7 -22.91,19.19 -37.89,25.47 -14.98,6.28 -32.04,9.42 -51.15,9.42zm-50.09 -116.44c0,17.7 4.71,31.9 14.13,42.59 9.42,10.71 21.41,16.06 35.96,16.06 7.13,0 13.7,-1.43 19.69,-4.28 6,-2.86 11.21,-6.85 15.63,-11.99 4.43,-5.14 7.92,-11.35 10.49,-18.63 2.57,-7.27 3.86,-15.19 3.86,-23.76 0,-17.7 -4.71,-31.9 -14.13,-42.59 -9.42,-10.7 -21.27,-16.06 -35.54,-16.06 -7.14,0 -13.77,1.43 -19.91,4.29 -6.14,2.85 -11.42,6.85 -15.84,11.98 -4.43,5.14 -7.92,11.35 -10.49,18.63 -2.57,7.28 -3.86,15.2 -3.86,23.76zm345.91 -53.94c-16.56,0.29 -31.47,3 -44.73,8.14 -13.28,5.14 -23.05,12.84 -29.33,23.12l0 134.85 -68.5 0 0 -224.75 62.93 0 0 45.37c7.99,-15.13 18.05,-26.9 30.19,-35.32 12.13,-8.42 25.04,-12.92 38.73,-13.49 5.71,0 9.28,0.14 10.71,0.43l0 61.64zm136.99 170.39c-18.84,0 -35.74,-3.07 -50.73,-9.2 -14.99,-6.14 -27.69,-14.49 -38.1,-25.05 -10.41,-10.56 -18.34,-22.77 -23.76,-36.6 -5.42,-13.84 -8.13,-28.33 -8.13,-43.45 0,-16.27 2.71,-31.61 8.13,-46.01 5.42,-14.42 13.27,-27.05 23.55,-37.89 10.28,-10.84 22.91,-19.41 37.88,-25.69 14.99,-6.28 32.04,-9.42 51.16,-9.42 19.12,0 36.1,3.14 50.94,9.42 14.84,6.28 27.4,14.78 37.67,25.48 10.27,10.7 18.05,23.05 23.33,37.03 5.28,13.98 7.92,28.68 7.92,44.09 0,3.99 -0.14,7.92 -0.43,11.77 -0.28,3.85 -0.71,7.21 -1.28,10.06l-166.11 0c1.14,15.13 6.64,26.62 16.49,34.47 9.84,7.85 21.05,11.77 33.61,11.77 9.99,0 19.62,-2.42 28.9,-7.28 9.28,-4.85 15.48,-11.41 18.62,-19.69l58.22 16.27c-8.85,17.7 -22.55,32.11 -41.09,43.23 -18.55,11.14 -40.81,16.7 -66.78,16.7zm47.51 -137.85c-1.42,-14.27 -6.56,-25.54 -15.41,-33.82 -8.85,-8.28 -19.84,-12.42 -32.97,-12.42 -13.42,0 -24.48,4.21 -33.18,12.63 -8.71,8.42 -13.77,19.63 -15.2,33.61l96.75 0zm197.36 137.85c-9.42,0 -19.2,-0.71 -29.33,-2.14 -10.14,-1.43 -20.2,-3.35 -30.19,-5.78 -9.99,-2.43 -19.55,-5.42 -28.69,-8.99 -9.13,-3.57 -17.12,-7.49 -23.97,-11.78l26.97 -46.23c14.84,8.57 29.26,15.13 43.24,19.7 13.98,4.57 27.4,6.85 40.23,6.85 9.99,0 17.63,-1.57 22.91,-4.71 5.28,-3.14 7.92,-7.71 7.92,-13.7 0,-6 -3.57,-10.63 -10.7,-13.92 -7.14,-3.28 -19.41,-7.2 -36.82,-11.77 -15.12,-4 -27.97,-7.99 -38.52,-11.99 -10.56,-4 -19.05,-8.49 -25.47,-13.49 -6.43,-4.99 -11.07,-10.63 -13.92,-16.91 -2.85,-6.28 -4.28,-13.7 -4.28,-22.26 0,-11.42 2.35,-21.84 7.06,-31.26 4.71,-9.42 11.21,-17.41 19.48,-23.98 8.28,-6.56 18.06,-11.7 29.33,-15.41 11.28,-3.71 23.62,-5.57 37.03,-5.57 15.7,0 31.75,2.36 48.16,7.07 16.41,4.71 32.47,11.2 48.15,19.48l-26.97 43.23c-13.99,-7.7 -26.47,-13.34 -37.45,-16.91 -10.99,-3.57 -21.63,-5.35 -31.9,-5.35 -8.56,0 -15.63,1.5 -21.19,4.5 -5.57,2.99 -8.35,7.77 -8.35,14.34 0,3.14 0.71,5.78 2.14,7.92 1.42,2.14 3.78,4.14 7.06,5.99 3.28,1.86 7.64,3.57 13.06,5.14 5.42,1.57 12.13,3.36 20.12,5.35 16.56,4.29 30.55,8.57 41.95,12.85 11.42,4.28 20.7,9.06 27.83,14.34 7.14,5.28 12.28,11.35 15.42,18.2 3.14,6.85 4.71,14.98 4.71,24.4 0,11.14 -2.21,21.2 -6.64,30.19 -4.42,8.99 -10.77,16.63 -19.05,22.91 -8.28,6.28 -18.27,11.13 -29.97,14.55 -11.71,3.43 -24.84,5.14 -39.38,5.14zm320.65 0c-15.42,0 -29.62,-2.92 -42.59,-8.78 -12.99,-5.85 -24.2,-14.05 -33.61,-24.61 -9.42,-10.57 -16.77,-22.91 -22.06,-37.03 -5.28,-14.13 -7.92,-29.62 -7.92,-46.45 0,-16.27 2.43,-31.54 7.28,-45.8 4.86,-14.27 11.71,-26.62 20.55,-37.03 8.85,-10.41 19.34,-18.62 31.47,-24.61 12.14,-6 25.48,-9 40.03,-9 15.41,0 29.54,3.72 42.37,11.14 12.85,7.42 22.7,17.41 29.55,29.97l0 -124.58 68.49 0 0 235.46c0,6.85 1.29,11.63 3.86,14.34 2.57,2.72 7.13,4.36 13.7,4.93l0 57.79c-7.14,1.43 -13.35,2.35 -18.63,2.78 -5.28,0.43 -10.06,0.65 -14.34,0.65 -23.98,-0.58 -37.67,-10.14 -41.09,-28.69l-1.29 -11.99c-8.28,13.99 -19.12,24.41 -32.54,31.26 -13.41,6.85 -27.83,10.27 -43.23,10.27zm18.41 -57.79c9.42,0 18.41,-2.78 26.97,-8.35 8.57,-5.57 15.27,-13.2 20.13,-22.91l0 -47.08c-4.29,-11.42 -11.21,-20.77 -20.77,-28.05 -9.56,-7.28 -19.48,-10.92 -29.76,-10.92 -7.42,0 -14.2,1.65 -20.33,4.93 -6.14,3.28 -11.49,7.63 -16.06,13.06 -4.57,5.42 -8.06,11.7 -10.49,18.84 -2.43,7.13 -3.64,14.7 -3.64,22.69 0,16.84 5,30.68 14.99,41.52 9.99,10.85 22.97,16.27 38.95,16.27zm278.27 57.79c-18.84,0 -35.74,-3.07 -50.73,-9.2 -14.99,-6.14 -27.69,-14.49 -38.1,-25.05 -10.41,-10.56 -18.34,-22.77 -23.76,-36.6 -5.42,-13.84 -8.13,-28.33 -8.13,-43.45 0,-16.27 2.71,-31.61 8.13,-46.01 5.42,-14.42 13.27,-27.05 23.55,-37.89 10.28,-10.84 22.91,-19.41 37.88,-25.69 14.99,-6.28 32.04,-9.42 51.16,-9.42 19.12,0 36.1,3.14 50.94,9.42 14.84,6.28 27.4,14.78 37.67,25.48 10.27,10.7 18.05,23.05 23.33,37.03 5.28,13.98 7.92,28.68 7.92,44.09 0,3.99 -0.14,7.92 -0.43,11.77 -0.28,3.85 -0.71,7.21 -1.28,10.06l-166.11 0c1.14,15.13 6.64,26.62 16.49,34.47 9.84,7.85 21.05,11.77 33.61,11.77 9.99,0 19.62,-2.42 28.9,-7.28 9.28,-4.85 15.48,-11.41 18.62,-19.69l58.22 16.27c-8.85,17.7 -22.55,32.11 -41.09,43.23 -18.55,11.14 -40.81,16.7 -66.78,16.7zm47.51 -137.85c-1.42,-14.27 -6.56,-25.54 -15.41,-33.82 -8.85,-8.28 -19.84,-12.42 -32.97,-12.42 -13.42,0 -24.48,4.21 -33.18,12.63 -8.71,8.42 -13.77,19.63 -15.2,33.61l96.75 0zm391.72 -81.34c-1.14,-1.14 -4.28,-3.28 -9.42,-6.42 -5.14,-3.14 -11.56,-6.42 -19.27,-9.85 -7.7,-3.42 -16.12,-6.42 -25.26,-8.99 -9.13,-2.57 -18.27,-3.85 -27.4,-3.85 -11.99,0 -21.2,2.14 -27.62,6.42 -6.42,4.28 -9.63,10.56 -9.63,18.84 0,5.14 1.43,9.42 4.28,12.85 2.85,3.42 6.92,6.49 12.2,9.2 5.28,2.71 11.85,5.21 19.7,7.49 7.85,2.29 16.91,4.86 27.19,7.71 14.55,4 27.68,8.35 39.38,13.06 11.7,4.71 21.69,10.56 29.97,17.55 8.28,7 14.63,15.49 19.05,25.48 4.43,9.99 6.64,21.98 6.64,35.95 0,17.13 -3.21,31.62 -9.64,43.45 -6.42,11.85 -14.91,21.41 -25.47,28.69 -10.56,7.28 -22.76,12.56 -36.6,15.84 -13.84,3.28 -28.04,4.93 -42.59,4.93 -11.13,0 -22.48,-0.86 -34.04,-2.57 -11.56,-1.72 -22.91,-4.21 -34.04,-7.5 -11.13,-3.28 -21.98,-7.2 -32.54,-11.77 -10.56,-4.57 -20.26,-9.85 -29.11,-15.84l30.82 -61.22c1.43,1.43 5.29,4.14 11.56,8.14 6.28,3.99 13.99,7.99 23.13,11.98 9.13,4 19.41,7.57 30.82,10.71 11.42,3.14 22.98,4.71 34.68,4.71 24.84,0 37.24,-7.57 37.24,-22.69 0,-5.71 -1.85,-10.42 -5.56,-14.13 -3.71,-3.71 -8.85,-7.07 -15.42,-10.07 -6.56,-2.99 -14.27,-5.78 -23.12,-8.35 -8.85,-2.56 -18.55,-5.42 -29.11,-8.56 -13.99,-4.28 -26.12,-8.92 -36.39,-13.91 -10.27,-5 -18.83,-10.78 -25.68,-17.34 -6.86,-6.57 -11.92,-14.13 -15.2,-22.7 -3.29,-8.56 -4.93,-18.55 -4.93,-29.97 0,-15.98 3,-30.11 8.99,-42.38 6,-12.27 14.13,-22.62 24.41,-31.04 10.27,-8.42 22.19,-14.77 35.74,-19.05 13.56,-4.28 27.9,-6.42 43.02,-6.42 10.85,0 21.41,1 31.68,2.99 10.28,2 20.06,4.57 29.33,7.71 9.28,3.14 18.06,6.71 26.33,10.71 8.28,3.99 15.7,7.99 22.27,11.98l-30.4 58.22zm182.8 219.19c-18.84,0 -35.74,-3.07 -50.73,-9.2 -14.99,-6.14 -27.69,-14.49 -38.1,-25.05 -10.41,-10.56 -18.34,-22.77 -23.76,-36.6 -5.42,-13.84 -8.13,-28.33 -8.13,-43.45 0,-16.27 2.71,-31.61 8.13,-46.01 5.42,-14.42 13.27,-27.05 23.55,-37.89 10.28,-10.84 22.91,-19.41 37.88,-25.69 14.99,-6.28 32.04,-9.42 51.16,-9.42 19.12,0 36.1,3.14 50.94,9.42 14.84,6.28 27.4,14.78 37.67,25.48 10.27,10.7 18.05,23.05 23.33,37.03 5.28,13.98 7.92,28.68 7.92,44.09 0,3.99 -0.14,7.92 -0.43,11.77 -0.28,3.85 -0.71,7.21 -1.28,10.06l-166.11 0c1.14,15.13 6.64,26.62 16.49,34.47 9.84,7.85 21.05,11.77 33.61,11.77 9.99,0 19.62,-2.42 28.9,-7.28 9.28,-4.85 15.48,-11.41 18.62,-19.69l58.22 16.27c-8.85,17.7 -22.55,32.11 -41.09,43.23 -18.55,11.14 -40.81,16.7 -66.78,16.7zm47.51 -137.85c-1.42,-14.27 -6.56,-25.54 -15.41,-33.82 -8.85,-8.28 -19.84,-12.42 -32.97,-12.42 -13.42,0 -24.48,4.21 -33.18,12.63 -8.71,8.42 -13.77,19.63 -15.2,33.61l96.75 0zm190.51 134.43c-14.85,0 -28.33,-3 -40.46,-9 -12.13,-5.99 -22.55,-14.12 -31.25,-24.4 -8.71,-10.28 -15.49,-22.26 -20.34,-35.96 -4.85,-13.7 -7.28,-28.4 -7.28,-44.09 0,-16.55 2.57,-31.89 7.71,-46.01 5.14,-14.13 12.27,-26.41 21.41,-36.82 9.13,-10.41 20.12,-18.62 32.97,-24.61 12.84,-6 26.97,-9 42.37,-9 16.84,0 31.69,3.64 44.52,10.92 12.85,7.28 23.12,17.34 30.83,30.19l0 -36.81 59.5 0 0 209.34c0,17.12 -3.21,32.54 -9.63,46.23 -6.42,13.7 -15.34,25.33 -26.76,34.89 -11.42,9.56 -25.12,16.91 -41.09,22.05 -15.99,5.14 -33.54,7.71 -52.66,7.71 -24.26,0 -44.94,-3.85 -62.07,-11.56 -17.13,-7.71 -32.11,-18.84 -44.95,-33.4l36.39 -37.24c8.27,9.42 18.62,16.92 31.04,22.48 12.41,5.57 25.62,8.35 39.59,8.35 8.28,0 16.13,-1.14 23.55,-3.42 7.42,-2.29 13.99,-5.78 19.7,-10.49 5.71,-4.71 10.2,-10.85 13.48,-18.42 3.29,-7.56 4.93,-16.62 4.93,-27.18l0 -21.84c-6.85,12.56 -16.77,22.05 -29.76,28.47 -12.99,6.43 -26.9,9.64 -41.73,9.64zm23.97 -54.37c10.56,0 19.91,-2.93 28.05,-8.78 8.13,-5.85 14.63,-13.34 19.48,-22.48l0 -47.08c-4.57,-11.99 -11.56,-21.48 -20.98,-28.48 -9.42,-6.99 -19.41,-10.49 -29.97,-10.49 -7.42,0 -14.2,1.65 -20.34,4.93 -6.14,3.28 -11.42,7.7 -15.84,13.27 -4.43,5.57 -7.85,11.99 -10.28,19.27 -2.42,7.28 -3.64,14.77 -3.64,22.48 0,8.27 1.36,15.91 4.07,22.9 2.71,7 6.42,13.06 11.13,18.2 4.71,5.14 10.35,9.13 16.91,11.99 6.57,2.85 13.71,4.28 21.41,4.28zm230.75 57.79c-22.84,0 -40.24,-7.21 -52.23,-21.62 -11.99,-14.42 -17.98,-35.61 -17.98,-63.57l0 -143.84 68.49 0 0 128.85c0,13.7 2.72,24.19 8.14,31.47 5.42,7.28 13.13,10.92 23.12,10.92 9.13,0 17.98,-2.43 26.55,-7.28 8.56,-4.85 16.12,-13.27 22.69,-25.26l0 -138.7 68.49 0 0 147.69c0,6.85 1.29,11.63 3.86,14.34 2.57,2.72 7.13,4.36 13.7,4.93l0 57.79c-7.14,1.43 -13.35,2.35 -18.63,2.78 -5.28,0.43 -9.92,0.65 -13.91,0.65 -23.98,-0.29 -37.81,-9.85 -41.52,-28.69l-1.29 -13.7c-10.27,14.84 -23.05,25.76 -38.31,32.75 -15.27,6.99 -32.32,10.49 -51.15,10.49zm345.05 -170.39c-16.56,0.29 -31.47,3 -44.73,8.14 -13.28,5.14 -23.05,12.84 -29.33,23.12l0 134.85 -68.5 0 0 -224.75 62.93 0 0 45.37c7.99,-15.13 18.05,-26.9 30.19,-35.32 12.13,-8.42 25.04,-12.92 38.73,-13.49 5.71,0 9.28,0.14 10.71,0.43l0 61.64zm132.28 170.39c-19.13,0 -36.17,-3.14 -51.16,-9.42 -14.98,-6.28 -27.61,-14.77 -37.88,-25.47 -10.27,-10.71 -18.05,-23.12 -23.33,-37.24 -5.28,-14.13 -7.92,-28.9 -7.92,-44.31 0,-15.41 2.64,-30.18 7.92,-44.3 5.28,-14.13 13.06,-26.55 23.33,-37.24 10.28,-10.71 22.91,-19.27 37.88,-25.69 14.99,-6.42 32.04,-9.64 51.16,-9.64 19.12,0 36.1,3.22 50.94,9.64 14.84,6.42 27.4,14.98 37.67,25.69 10.27,10.7 18.12,23.12 23.55,37.24 5.42,14.13 8.13,28.9 8.13,44.3 0,15.42 -2.64,30.19 -7.92,44.31 -5.28,14.13 -13.06,26.54 -23.33,37.24 -10.28,10.7 -22.91,19.19 -37.89,25.47 -14.98,6.28 -32.04,9.42 -51.15,9.42zm-50.09 -116.44c0,17.7 4.71,31.9 14.13,42.59 9.42,10.71 21.41,16.06 35.96,16.06 7.13,0 13.7,-1.43 19.69,-4.28 6,-2.86 11.21,-6.85 15.63,-11.99 4.43,-5.14 7.92,-11.35 10.49,-18.63 2.57,-7.27 3.86,-15.19 3.86,-23.76 0,-17.7 -4.71,-31.9 -14.13,-42.59 -9.42,-10.7 -21.27,-16.06 -35.54,-16.06 -7.14,0 -13.77,1.43 -19.91,4.29 -6.14,2.85 -11.42,6.85 -15.84,11.98 -4.43,5.14 -7.92,11.35 -10.49,18.63 -2.57,7.28 -3.86,15.2 -3.86,23.76zm296.25 116.44c-9.42,0 -19.2,-0.71 -29.33,-2.14 -10.14,-1.43 -20.2,-3.35 -30.19,-5.78 -9.99,-2.43 -19.55,-5.42 -28.69,-8.99 -9.13,-3.57 -17.12,-7.49 -23.97,-11.78l26.97 -46.23c14.84,8.57 29.26,15.13 43.24,19.7 13.98,4.57 27.4,6.85 40.23,6.85 9.99,0 17.63,-1.57 22.91,-4.71 5.28,-3.14 7.92,-7.71 7.92,-13.7 0,-6 -3.57,-10.63 -10.7,-13.92 -7.14,-3.28 -19.41,-7.2 -36.82,-11.77 -15.12,-4 -27.97,-7.99 -38.52,-11.99 -10.56,-4 -19.05,-8.49 -25.47,-13.49 -6.43,-4.99 -11.07,-10.63 -13.92,-16.91 -2.85,-6.28 -4.28,-13.7 -4.28,-22.26 0,-11.42 2.35,-21.84 7.06,-31.26 4.71,-9.42 11.21,-17.41 19.48,-23.98 8.28,-6.56 18.06,-11.7 29.33,-15.41 11.28,-3.71 23.62,-5.57 37.03,-5.57 15.7,0 31.75,2.36 48.16,7.07 16.41,4.71 32.47,11.2 48.15,19.48l-26.97 43.23c-13.99,-7.7 -26.47,-13.34 -37.45,-16.91 -10.99,-3.57 -21.63,-5.35 -31.9,-5.35 -8.56,0 -15.63,1.5 -21.19,4.5 -5.57,2.99 -8.35,7.77 -8.35,14.34 0,3.14 0.71,5.78 2.14,7.92 1.42,2.14 3.78,4.14 7.06,5.99 3.28,1.86 7.64,3.57 13.06,5.14 5.42,1.57 12.13,3.36 20.12,5.35 16.56,4.29 30.55,8.57 41.95,12.85 11.42,4.28 20.7,9.06 27.83,14.34 7.14,5.28 12.28,11.35 15.42,18.2 3.14,6.85 4.71,14.98 4.71,24.4 0,11.14 -2.21,21.2 -6.64,30.19 -4.42,8.99 -10.77,16.63 -19.05,22.91 -8.28,6.28 -18.27,11.13 -29.97,14.55 -11.71,3.43 -24.84,5.14 -39.38,5.14z"/>
   <polygon class="fil1" points="2773.73,1315.11 7526.14,1315.11 7526.14,1450.89 2773.73,1450.89 "/>
   <polygon class="fil1" points="-0,1061.23 146.38,1335.46 212.52,1225.91 248.51,1247.4 1184.89,1806.64 1099.39,1957.21 1370.74,2111.8 1476.66,1911.95 1301.02,1810.62 1342.81,1737.89 1655.14,1918.07 1757.23,1732.87 1459.18,1560.92 1500.96,1488.19 1912.07,1725.36 2026.08,1510.93 1618.27,1275.67 1660.06,1202.94 2154.97,1488.44 2269.49,1278.47 1127.26,619.5 872.8,894.32 429.99,723.52 468.51,678.36 742,357.72 479.7,336.98 357,512.25 -0,166.53 "/>
   <path class="fil2" d="M2239.32 0l-476.48 221.81 -794.46 0 -397.51 466.03 279.17 107.67 261.19 -282.1c302.43,174.35 604.81,348.77 907.15,523.25l220.94 -95.31 0 -941.36zm-1168.05 1836.58l-155.81 -93.05 -193.51 332.67 160.29 93.25 189.03 -332.87zm-227.96 -136.14l-152.08 -90.83 -195.04 335.27 153.12 89.07 194 -333.51zm-224.25 -133.92l-154.93 -92.53 -196.56 337.89 155.98 90.74 195.51 -336.1zm-227.09 -135.63l-150.6 -89.94 -203.61 337.25 157.16 91.43 197.05 -338.74z"/>
  </g>
 </g>
</svg>
